<svg width="28" height="28" viewBox="0 0 28 28" fill="none" xmlns="http://www.w3.org/2000/svg">
<g filter="url(#filter0_d_32_211)">
<path fill-rule="evenodd" clip-rule="evenodd" d="M21.792 5.41471C22.6521 5.64577 23.3325 6.32614 23.5635 7.18621C23.9872 8.75232 24 12.0001 24 12.0001C24 12.0001 24 15.2607 23.5764 16.8139C23.3453 17.674 22.665 18.3544 21.8049 18.5854C20.2516 19.0091 14 19.0091 14 19.0091C14 19.0091 7.74839 19.0091 6.19512 18.5854C5.33504 18.3544 4.65469 17.674 4.42362 16.8139C4 15.2478 4 12.0001 4 12.0001C4 12.0001 4 8.75232 4.41078 7.19905C4.64185 6.33897 5.32221 5.65861 6.18229 5.42755C7.73556 5.00392 13.9872 4.99109 13.9872 4.99109C13.9872 4.99109 20.2388 4.99109 21.792 5.41471ZM17.1836 12.0001L11.9974 15.0039V8.99623L17.1836 12.0001Z" fill="black"/>
</g>
<defs>
<filter id="filter0_d_32_211" x="-2" y="0" width="32" height="32" filterUnits="userSpaceOnUse" color-interpolation-filters="sRGB">
<feFlood flood-opacity="0" result="BackgroundImageFix"/>
<feColorMatrix in="SourceAlpha" type="matrix" values="0 0 0 0 0 0 0 0 0 0 0 0 0 0 0 0 0 0 127 0" result="hardAlpha"/>
<feOffset dy="4"/>
<feGaussianBlur stdDeviation="2"/>
<feComposite in2="hardAlpha" operator="out"/>
<feColorMatrix type="matrix" values="0 0 0 0 0 0 0 0 0 0 0 0 0 0 0 0 0 0 0.25 0"/>
<feBlend mode="normal" in2="BackgroundImageFix" result="effect1_dropShadow_32_211"/>
<feBlend mode="normal" in="SourceGraphic" in2="effect1_dropShadow_32_211" result="shape"/>
</filter>
</defs>
</svg>
